<svg xmlns="http://www.w3.org/2000/svg" viewBox="0 0 256 257" preserveAspectRatio="xMidYMid">
  <defs>
    <linearGradient x1="55.41%" y1="0%" x2="83.228%" y2="99.266%" id="a">
      <stop stop-color="#41D1FF" offset="0%" />
      <stop stop-color="#BD34FE" offset="100%" />
    </linearGradient>
    <linearGradient x1="50%" y1="0%" x2="89.553%" y2="100%" id="b">
      <stop stop-color="#FFEA83" offset="0%" />
      <stop stop-color="#FFDD35" offset="8.333%" />
      <stop stop-color="#FFA800" offset="100%" />
    </linearGradient>
  </defs>
  <path d="M255.153 37.938L134.897 252.976c-2.483 4.44-8.862 4.466-11.382.048L.875 37.958c-2.746-4.814 1.371-10.646 6.927-9.67l120.385 20.88a6.537 6.537 0 0 0 2.254-.004l117.82-20.89c5.536-.983 9.666 4.796 6.949 9.62Z" fill="url(#a)" />
  <path d="M185.432.063L96.44 17.501a3.268 3.268 0 0 0-2.634 3.014l-5.474 92.456a3.268 3.268 0 0 0 3.997 3.378l24.777-5.718c2.318-.536 4.413 1.507 3.936 3.838l-7.361 36.047c-.495 2.426 1.782 4.5 4.151 3.78l15.304-4.649c2.372-.72 4.652 1.36 4.15 3.788l-11.698 56.621c-.732 3.542 3.979 5.473 5.943 2.437l1.313-2.028 72.516-144.72c1.215-2.417-.88-5.186-3.54-4.672l-25.505 4.922c-2.396.462-4.435-1.77-3.759-4.114l16.646-57.705c.677-2.35-1.37-4.583-3.769-4.113Z" fill="url(#b)" />
</svg>
